<?xml version="1.0" standalone="no"?><!DOCTYPE svg PUBLIC "-//W3C//DTD SVG 1.1//EN" "http://www.w3.org/Graphics/SVG/1.1/DTD/svg11.dtd"><svg t="1561098238596" class="icon" viewBox="0 0 1024 1024" version="1.1" xmlns="http://www.w3.org/2000/svg" p-id="7696" xmlns:xlink="http://www.w3.org/1999/xlink" width="200" height="200"><defs><style type="text/css"></style></defs><path d="M211.991297 178.086957c-18.550725 0-33.391304 14.84058-33.391304 33.391304s14.84058 33.391304 33.391304 33.391304h486.028986c18.550725 0 33.391304-14.84058 33.391304-33.391304s-14.84058-33.391304-33.391304-33.391304H211.991297zM323.295645 352.463768H208.281152c-14.84058 0-29.681159 11.130435-29.681159 29.68116v11.130434c0 14.84058 11.130435 29.681159 29.681159 29.68116h115.014493c14.84058 0 29.681159-11.130435 29.681159-29.68116v-11.130434c0-18.550725-11.130435-29.681159-29.681159-29.68116zM965.150717 960.927536l-96.463768-92.753623c37.101449-48.231884 59.362319-107.594203 59.362319-170.666667 0-159.536232-126.144928-285.681159-281.971014-285.681159s-281.971014 126.144928-281.971015 285.681159 126.144928 285.681159 281.971015 285.68116c66.782609 0 129.855072-22.26087 178.086956-63.072464l96.463768 92.753623c7.42029 7.42029 14.84058 11.130435 22.26087 11.130435 7.42029 0 18.550725-3.710145 25.971014-11.130435 11.130435-18.550725 7.42029-40.811594-3.710145-51.942029z m-322.782608-48.231884c-118.724638 0-215.188406-96.463768-215.188406-218.898551s96.463768-218.898551 215.188406-218.89855 215.188406 96.463768 215.188405 218.89855-96.463768 218.898551-215.188405 218.898551z" fill="#1296db" p-id="7697"></path><path d="M260.223181 908.985507h-111.304348c-18.550725 0-33.391304-14.84058-33.391304-33.391304V100.173913c0-18.550725 14.84058-33.391304 33.391304-33.391304h619.594203c18.550725 0 33.391304 14.84058 33.391304 33.391304v185.507246c0 18.550725 14.84058 33.391304 33.391305 33.391305s33.391304-14.84058 33.391304-33.391305V74.202899c0-40.811594-33.391304-74.202899-74.202898-74.202899H119.237674C78.42608 0 45.034775 33.391304 45.034775 74.202899v827.362318c0 40.811594 33.391304 74.202899 74.202899 74.202899h137.275362c18.550725 0 33.391304-14.84058 33.391304-33.391304 3.710145-18.550725-11.130435-33.391304-29.681159-33.391305z" fill="#1296db" p-id="7698"></path></svg>